<?xml version="1.0" encoding="UTF-8"?>
<svg id="Layer_1" data-name="Layer 1" xmlns="http://www.w3.org/2000/svg" viewBox="0 0 73.1 9.85">
  <defs>
    <style>
      .cls-1 {
        fill: #201e1e;
      }

      .cls-2 {
        isolation: isolate;
      }

      .cls-3 {
        fill: #6832e3;
        fill-rule: evenodd;
      }
    </style>
  </defs>
  <g id="Layer_1-2" data-name="Layer_1">
    <path class="cls-3" d="M4.8.24c2.21,0,3.93,1.09,2.12,3.11-.53.59-1.29.96-2.15.96h-.09s-.06,0-.09,0h-.07s0,0,0,0c-.36.04-.64.34-.64.71s.28.67.64.71h0c.09.02.17.02.26.02,1.45,0,2.8-.71,3.57-1.9.76-1.18,1.23-.96,1.26,1.2,0,2.65-2.15,4.81-4.81,4.81S0,7.7,0,5.04,2.15.24,4.81.24h0Z"/>
    <g class="cls-2">
      <path class="cls-1" d="M11.26,5.24c0-1.89,1.24-3.11,3.11-3.11s3.04,1.13,3.07,2.91c0,.18-.01.38-.05.57h-4.4v.08c.04.86.59,1.38,1.43,1.38.67,0,1.14-.29,1.29-.86h1.64c-.19,1.18-1.24,2.12-2.85,2.12-2.02,0-3.23-1.21-3.23-3.09ZM15.77,4.52c-.12-.74-.62-1.16-1.38-1.16s-1.26.44-1.36,1.16h2.74Z"/>
      <path class="cls-1" d="M24.32,6.85v1.4h-.85c-.86,0-1.13-.41-1.12-.99-.42.67-1.04,1.06-1.98,1.06-1.31,0-2.25-.62-2.25-1.78,0-1.29.97-2.02,2.78-2.02h1.2v-.29c0-.54-.39-.9-1.08-.9-.65,0-1.08.29-1.16.74h-1.6c.12-1.18,1.2-1.96,2.81-1.96,1.7,0,2.68.75,2.68,2.21v2.15c0,.32.13.38.39.38h.19ZM22.1,5.64h-1.21c-.7,0-1.1.28-1.1.79,0,.42.34.7.9.7.87,0,1.4-.54,1.42-1.37v-.12Z"/>
      <path class="cls-1" d="M26.26,6.24c.06.53.52.9,1.33.9.7,0,1.12-.22,1.12-.65,0-.5-.41-.53-1.39-.66-1.42-.17-2.51-.48-2.51-1.73s1.05-1.99,2.61-1.98c1.63,0,2.75.72,2.83,1.96h-1.59c-.05-.48-.51-.78-1.18-.78s-1.07.24-1.07.62c0,.46.52.51,1.39.61,1.39.14,2.55.46,2.55,1.83,0,1.2-1.13,1.97-2.76,1.97s-2.83-.79-2.9-2.09h1.58Z"/>
      <path class="cls-1" d="M30.98,5.24c0-1.89,1.24-3.11,3.11-3.11s3.04,1.13,3.07,2.91c0,.18-.01.38-.05.57h-4.4v.08c.04.86.59,1.38,1.43,1.38.67,0,1.14-.29,1.29-.86h1.64c-.19,1.18-1.24,2.12-2.85,2.12-2.02,0-3.23-1.21-3.23-3.09ZM35.48,4.52c-.12-.74-.62-1.16-1.38-1.16s-1.26.44-1.36,1.16h2.74Z"/>
      <path class="cls-1" d="M44.03,6.85v1.4h-.85c-.86,0-1.13-.41-1.12-.99-.42.67-1.04,1.06-1.98,1.06-1.31,0-2.25-.62-2.25-1.78,0-1.29.97-2.02,2.78-2.02h1.2v-.29c0-.54-.39-.9-1.08-.9-.65,0-1.08.29-1.16.74h-1.6c.12-1.18,1.2-1.96,2.81-1.96,1.7,0,2.68.75,2.68,2.21v2.15c0,.32.13.38.39.38h.19ZM41.81,5.64h-1.21c-.7,0-1.1.28-1.1.79,0,.42.34.7.9.7.87,0,1.4-.54,1.42-1.37v-.12Z"/>
      <path class="cls-1" d="M48.37,2.19v1.51h-.66c-.99,0-1.37.66-1.37,1.58v2.97h-1.66V2.19h1.51l.15.91c.33-.54.8-.91,1.75-.91h.28Z"/>
      <path class="cls-1" d="M48.68,5.23c0-1.88,1.23-3.1,3.15-3.1,1.65,0,2.68.9,2.91,2.34h-1.73c-.14-.6-.55-.98-1.2-.98-.87,0-1.43.72-1.43,1.75s.55,1.75,1.43,1.75c.65,0,1.08-.39,1.2-1h1.75c-.24,1.45-1.33,2.36-2.98,2.36-1.92,0-3.09-1.19-3.09-3.1Z"/>
      <path class="cls-1" d="M61.53,4.89v3.36h-1.66v-3.22c0-.99-.4-1.54-1.23-1.54s-1.36.61-1.36,1.65v3.11h-1.66V0h1.66v2.94c.39-.47.93-.81,1.79-.81,1.34,0,2.45.72,2.45,2.77Z"/>
      <path class="cls-1" d="M62.32,5.24c0-1.89,1.24-3.11,3.11-3.11s3.04,1.13,3.07,2.91c0,.18-.01.38-.05.57h-4.4v.08c.04.86.59,1.38,1.43,1.38.67,0,1.14-.29,1.29-.86h1.64c-.19,1.18-1.24,2.12-2.86,2.12-2.02,0-3.23-1.21-3.23-3.09ZM66.82,4.52c-.12-.74-.62-1.16-1.38-1.16s-1.26.44-1.36,1.16h2.74Z"/>
      <path class="cls-1" d="M73.1,2.19v1.51h-.66c-.99,0-1.37.66-1.37,1.58v2.97h-1.66V2.19h1.51l.15.91c.33-.54.8-.91,1.75-.91h.28Z"/>
    </g>
  </g>
</svg>